<svg width="80" height="80" viewBox="0 0 80 80" fill="none" xmlns="http://www.w3.org/2000/svg">
<path d="M70.6667 8C68.4242 8.00263 66.2577 8.81254 64.5634 10.2816C62.8691 11.7506 61.7604 13.7805 61.44 16H45.3333V18.6667H61.3333V70.6667C61.3333 71.0203 61.4738 71.3594 61.7239 71.6095C61.9739 71.8595 62.313 72 62.6667 72C63.0203 72 63.3594 71.8595 63.6095 71.6095C63.8595 71.3594 64 71.0203 64 70.6667C64 68.8986 64.7024 67.2029 65.9526 65.9526C67.2029 64.7024 68.8986 64 70.6667 64C72.4348 64 74.1305 64.7024 75.3807 65.9526C76.631 67.2029 77.3333 68.8986 77.3333 70.6667V70.9467C77.3298 72.6394 76.6558 74.2619 75.4588 75.4588C74.2619 76.6558 72.6394 77.3298 70.9467 77.3333H2.66667V49.756C5.69754 55.6357 10.2843 60.5706 15.927 64.0228C21.5697 67.4749 28.0518 69.3119 34.6667 69.3333C35.0203 69.3333 35.3594 69.1929 35.6095 68.9428C35.8595 68.6928 36 68.3536 36 68C36 67.6464 35.8595 67.3072 35.6095 67.0572C35.3594 66.8071 35.0203 66.6667 34.6667 66.6667C29.663 66.657 24.7265 65.5137 20.228 63.3227L21.056 60.2347C21.8805 60.1835 22.6674 59.8719 23.3034 59.3447C23.9394 58.8175 24.3915 58.102 24.5947 57.3013L28.984 40.9333C29.9806 41.1177 30.988 41.2384 32 41.2947V42.6667C32 43.0203 32.1405 43.3594 32.3905 43.6095C32.6406 43.8595 32.9797 44 33.3333 44C33.687 44 34.0261 43.8595 34.2761 43.6095C34.5262 43.3594 34.6667 43.0203 34.6667 42.6667V41.2947C35.6786 41.2393 36.686 41.1194 37.6827 40.936L42.0707 57.2973C42.2732 58.0986 42.7253 58.8147 43.3617 59.3421C43.9981 59.8694 44.7857 60.1806 45.6107 60.2307L46.712 64.3427C46.7875 64.6266 46.9547 64.8777 47.1877 65.0569C47.4206 65.236 47.7062 65.3332 48 65.3333C48.1166 65.3332 48.2327 65.318 48.3453 65.288C48.5145 65.2427 48.6731 65.1645 48.812 65.0578C48.9509 64.9512 49.0675 64.8183 49.155 64.6666C49.2425 64.5149 49.2993 64.3475 49.3222 64.1739C49.345 64.0002 49.3334 63.8238 49.288 63.6547L48.188 59.552C48.8645 59.0842 49.3809 58.4198 49.6671 57.6487C49.9533 56.8776 49.9955 56.0372 49.788 55.2413L41.0387 22.5907C42.4277 20.5623 42.9578 18.0668 42.5134 15.649C42.069 13.2311 40.6861 11.0872 38.6667 9.68533V5.33333C38.6667 3.91885 38.1048 2.56229 37.1046 1.5621C36.1044 0.561903 34.7478 0 33.3333 0C31.9188 0 30.5623 0.561903 29.5621 1.5621C28.5619 2.56229 28 3.91885 28 5.33333V9.68533C25.9805 11.0872 24.5977 13.2311 24.1532 15.649C23.7088 18.0668 24.239 20.5623 25.628 22.5907L16.8707 55.2467C16.6639 56.0424 16.7073 56.8824 16.9951 57.6526C17.2828 58.4227 17.8008 59.0855 18.4787 59.5507L17.812 62.0307C10.4707 57.7355 5.05166 50.7936 2.66667 42.6293V18.6667H21.3333V16H0V80H70.9467C73.3476 79.9965 75.6491 79.0408 77.3463 77.3426C79.0435 75.6443 79.9979 73.3423 80 70.9413V17.3333C79.9972 14.8588 79.0129 12.4865 77.2632 10.7368C75.5135 8.98706 73.1412 8.00282 70.6667 8ZM34.6667 38.5867V37.3333C34.6667 36.9797 34.5262 36.6406 34.2761 36.3905C34.0261 36.1405 33.687 36 33.3333 36C32.9797 36 32.6406 36.1405 32.3905 36.3905C32.1405 36.6406 32 36.9797 32 37.3333V38.5867C31.2246 38.5402 30.4523 38.4512 29.6867 38.32L32.8173 26.6427C32.9893 26.652 33.1587 26.6693 33.3333 26.6693C33.508 26.6693 33.6773 26.652 33.8493 26.6427L36.98 38.32C36.2144 38.4512 35.4421 38.5402 34.6667 38.5867ZM47.2173 55.9267C47.306 56.2669 47.258 56.6283 47.0836 56.9336C46.9092 57.2389 46.6222 57.4637 46.284 57.56H46.276C45.936 57.6501 45.5742 57.6022 45.2693 57.4267C45.1185 57.3391 44.9867 57.2222 44.8816 57.083C44.7765 56.9438 44.7003 56.7851 44.6573 56.616L36.468 26.1133C37.3302 25.8044 38.142 25.37 38.8773 24.824L47.2173 55.9267ZM30.6667 5.33333C30.6667 4.62609 30.9476 3.94781 31.4477 3.44772C31.9478 2.94762 32.6261 2.66667 33.3333 2.66667C34.0406 2.66667 34.7189 2.94762 35.219 3.44772C35.719 3.94781 36 4.62609 36 5.33333V8.4C34.2609 7.87554 32.4058 7.87554 30.6667 8.4V5.33333ZM33.3333 10.6667C34.6519 10.6667 35.9408 11.0577 37.0371 11.7902C38.1335 12.5227 38.9879 13.5639 39.4925 14.7821C39.9971 16.0003 40.1291 17.3407 39.8719 18.6339C39.6147 19.9271 38.9797 21.115 38.0474 22.0474C37.115 22.9797 35.9271 23.6147 34.6339 23.8719C33.3407 24.1291 32.0003 23.9971 30.7821 23.4925C29.5639 22.9879 28.5227 22.1335 27.7902 21.0371C27.0577 19.9408 26.6667 18.6519 26.6667 17.3333C26.6688 15.5659 27.3718 13.8714 28.6216 12.6216C29.8714 11.3718 31.5659 10.6688 33.3333 10.6667ZM19.448 55.932L27.7893 24.824C28.5246 25.37 29.3365 25.8044 30.1987 26.1133L22.0173 56.6227C21.9259 56.9601 21.7055 57.2481 21.4038 57.4247C21.102 57.6013 20.743 57.6523 20.404 57.5667H20.392C20.0516 57.4726 19.7618 57.2485 19.5852 56.9427C19.4086 56.6369 19.3593 56.2738 19.448 55.932ZM77.3333 64.14C76.4652 63.2516 75.4282 62.5457 74.2833 62.0637C73.1385 61.5818 71.9088 61.3335 70.6667 61.3335C69.4245 61.3335 68.1949 61.5818 67.05 62.0637C65.9052 62.5457 64.8682 63.2516 64 64.14V17.3333C64 15.5652 64.7024 13.8695 65.9526 12.6193C67.2029 11.369 68.8986 10.6667 70.6667 10.6667C72.4348 10.6667 74.1305 11.369 75.3807 12.6193C76.631 13.8695 77.3333 15.5652 77.3333 17.3333V64.14Z" fill="#BD2226"/>
</svg>
