<svg width="80" height="80" viewBox="0 0 80 80" fill="none" xmlns="http://www.w3.org/2000/svg">
<path d="M73.3333 0H9.33328C4.18109 0.0059375 0.0059375 4.18109 0 9.33328V73.3333C0.004375 77.0134 2.98656 79.9956 6.66672 80H38.6667C40.1387 79.9983 41.3317 78.8055 41.3334 77.3333V60.5523L60.5519 41.3333H77.3334C78.8055 41.3316 79.9984 40.1388 80.0002 38.6666V6.66656C79.9956 2.98656 77.0134 0.004375 73.3333 0ZM38.6667 77.3333H24.5528L38.6667 63.2191V77.3333ZM77.3333 38.6667H63.2184L77.3333 24.5514V38.6667ZM77.3333 19.1244C77.3302 20.1845 76.9091 21.2008 76.1614 21.9525L59.0575 39.0569L59.0567 39.0577L39.0589 59.0559L39.0556 59.0592L21.9531 76.1622C21.2042 76.9147 20.1855 77.3366 19.1237 77.3334H6.66672C4.45859 77.3311 2.66906 75.5416 2.66672 73.3334V9.33344C2.67109 5.65328 5.65328 2.67109 9.33344 2.66672H73.3334C75.5416 2.66906 77.3311 4.45859 77.3334 6.66672V19.1244H77.3333Z" fill="#BD2226"/>
<path d="M14.6667 8C10.9847 8 8 10.9847 8 14.6667C8.00438 18.3469 10.9866 21.3291 14.6667 21.3334C18.3486 21.3334 21.3334 18.3487 21.3334 14.6667C21.3333 10.9847 18.3486 8 14.6667 8ZM14.6667 18.6667C12.4575 18.6667 10.6667 16.8759 10.6667 14.6667C10.6691 12.4586 12.4586 10.6691 14.6667 10.6667C16.8758 10.6667 18.6667 12.4575 18.6667 14.6667C18.6667 16.8758 16.8758 18.6667 14.6667 18.6667Z" fill="#BD2226"/>
<path d="M14.6667 58.6667C10.9848 58.6667 8 61.6516 8 65.3335C8 69.0153 10.9847 72 14.6667 72C18.3469 71.9956 21.3291 69.0135 21.3334 65.3333C21.3333 61.6514 18.3486 58.6667 14.6667 58.6667ZM14.6667 69.3333C12.4575 69.3333 10.6667 67.5425 10.6667 65.3333C10.6667 63.1241 12.4575 61.3333 14.6667 61.3333C16.8758 61.3333 18.6667 63.1242 18.6667 65.3333C18.6642 67.5414 16.8748 69.331 14.6667 69.3333Z" fill="#BD2226"/>
<path d="M65.3337 8C61.6518 8 58.667 10.9847 58.667 14.6667C58.6714 18.3469 61.6536 21.3291 65.3337 21.3334C69.0156 21.3334 72.0004 18.3487 72.0004 14.6667C72.0004 10.9847 69.0157 8 65.3337 8ZM65.3337 18.6667C63.1246 18.6667 61.3337 16.8759 61.3337 14.6667C61.3361 12.4586 63.1256 10.6691 65.3337 10.6667C67.5428 10.6667 69.3337 12.4575 69.3337 14.6667C69.3337 16.8758 67.5429 18.6667 65.3337 18.6667Z" fill="#BD2226"/>
</svg>
