<svg width="80" height="74" viewBox="0 0 80 74" fill="none" xmlns="http://www.w3.org/2000/svg">
<g clip-path="url(#clip0)">
<path d="M79.9903 32.0059C79.9878 31.8594 79.9566 31.7146 79.8984 31.5784L79.8964 31.5752C79.8914 31.564 79.8819 31.5557 79.8766 31.5448C79.7456 31.2927 79.5288 31.0874 79.2594 30.9603C79.2181 30.9395 79.1758 30.921 79.1323 30.9045C78.9841 30.8496 78.8264 30.8202 78.6667 30.8176H67.3334C64.0212 30.8142 61.337 28.3326 61.3334 25.2704V1.23266C61.3334 1.21287 61.3223 1.19654 61.3213 1.17704C61.3158 1.0466 61.2877 0.917739 61.238 0.795528C61.2313 0.779349 61.2306 0.761291 61.2233 0.745401L61.2213 0.739189C61.1588 0.612067 61.0731 0.495923 60.9681 0.395669C60.937 0.3675 60.9042 0.340775 60.8702 0.31564C60.7852 0.246445 60.6909 0.18765 60.5895 0.140846C60.408 0.0512825 60.2058 0.00303372 60 1.09002e-07H52C51.6286 -0.000144349 51.2741 0.143302 51.0222 0.39538L17.6889 33.6784C17.6533 33.7243 17.6214 33.7726 17.5933 33.823C17.4553 33.9669 17.3766 34.1511 17.3711 34.3433C17.3539 34.3998 17.3412 34.4575 17.3334 34.5158V48.7978L0.391563 64.461C0.142656 64.6933 0.00203138 65.0065 1.30214e-07 65.3334V72.7296C-0.00015612 73.0565 0.140313 73.3701 0.390469 73.6014C0.640469 73.8325 0.979688 73.9624 1.33344 73.9624H44C44.18 73.9624 44.358 73.9286 44.5233 73.8629C44.5391 73.8567 44.5502 73.8432 44.5655 73.8366C44.7094 73.7758 44.8405 73.6917 44.9523 73.5883L44.9659 73.5796L71.6094 47.7143L79.6094 40.3181C79.8594 40.087 80 39.7735 80 39.4466V32.0504C80 32.0345 79.9909 32.0215 79.9903 32.0059ZM52.582 2.46546H56.948L26.0848 33.283H21.7177L52.582 2.46546ZM17.3333 52.284V58.5534C17.3297 61.6156 14.6455 64.0973 11.3333 64.1006H4.55203L17.3333 52.284ZM42.6667 71.4968H2.66672V66.566H11.3334C16.1177 66.561 19.9945 62.9766 20.0002 58.5534V35.7485H25.3334V58.5536C25.3389 62.9767 29.2159 66.561 34.0002 66.5662H42.6669V71.4968H42.6667ZM43.4284 64.1006H34C30.6878 64.0973 28.0036 61.6156 28 58.5534V34.998L58.6667 4.37764V25.2704C58.6723 29.371 62.0216 32.8078 66.4323 33.2393C66.5088 33.2606 66.5873 33.2754 66.6667 33.283H75.448L69.7006 38.5966L43.4284 64.1006ZM77.3333 38.9361L69.7005 45.9928L45.3333 69.6475V65.8266L71.6094 40.3181L77.3334 35.0262V38.9361H77.3333Z" fill="#BD2226"/>
<path d="M32.3868 58.2453C32.1412 58.4751 32.0024 58.7847 32.0001 59.1078C31.9966 59.4357 32.136 59.7511 32.3868 59.9829C32.6376 60.2148 32.9787 60.3436 33.3333 60.3405C33.6876 60.3412 34.0277 60.2128 34.2801 59.9829C34.5255 59.7478 34.664 59.4344 34.6668 59.1077C34.664 58.7847 34.5252 58.4754 34.2801 58.2451C33.7508 57.7763 32.916 57.7763 32.3868 58.2453Z" fill="#BD2226"/>
<path d="M38.9814 52.7472C38.5184 52.6432 38.0306 52.7755 37.7017 53.0941L36.3684 54.3859C35.8622 54.8788 35.883 55.6575 36.415 56.1267C36.947 56.5959 37.7894 56.5786 38.2981 56.088L39.6314 54.7963C39.9603 54.4776 40.0803 54.0208 39.9463 53.5982C39.8122 53.1756 39.4444 52.8512 38.9814 52.7472Z" fill="#BD2226"/>
<path d="M43.035 47.9285L41.7017 49.2203C41.1933 49.7129 41.2131 50.4934 41.746 50.9635C42.2788 51.4335 43.123 51.4152 43.6314 50.9226L44.9647 49.6308C45.4732 49.1382 45.4533 48.3577 44.9205 47.8877C44.3875 47.4176 43.5435 47.4359 43.035 47.9285Z" fill="#BD2226"/>
<path d="M48.368 42.7631L47.0347 44.0549C46.5263 44.5475 46.5462 45.328 47.079 45.7981C47.6118 46.2681 48.456 46.2498 48.9644 45.7572L50.2977 44.4654C50.8062 43.9728 50.7863 43.1923 50.2535 42.7223C49.7207 42.2522 48.8765 42.2705 48.368 42.7631Z" fill="#BD2226"/>
<path d="M54.9817 37.2506C54.5187 37.1466 54.0309 37.2789 53.702 37.5976L52.3687 38.8893C51.8603 39.3819 51.8801 40.1624 52.4129 40.6325C52.9458 41.1025 53.79 41.0842 54.2984 40.5916L55.6317 39.2998C55.9606 38.9812 56.0806 38.5244 55.9466 38.1017C55.8123 37.679 55.4447 37.3546 54.9817 37.2506Z" fill="#BD2226"/>
<path d="M57.7198 33.7019C57.4739 33.9366 57.3353 34.2503 57.3331 34.5772C57.3293 34.9016 57.469 35.2134 57.7198 35.4403C57.9684 35.6766 58.3098 35.8098 58.6664 35.8098C59.0229 35.8098 59.3643 35.6765 59.6129 35.4403C59.8631 35.2131 60.0028 34.9015 59.9997 34.5772C59.9968 34.2504 59.8584 33.9371 59.6129 33.7019C59.0784 33.2457 58.2543 33.2457 57.7198 33.7019Z" fill="#BD2226"/>
</g>
<defs>
<clipPath id="clip0">
<rect width="80" height="73.9623" fill="white"/>
</clipPath>
</defs>
</svg>
