<svg width="80" height="80" viewBox="0 0 80 80" fill="none" xmlns="http://www.w3.org/2000/svg">
<path d="M24.2585 2.01467e-06H20.155C19.0775 0.11663 18.1699 1.14381 17.8874 2.56645L0.104475 76.2968C-0.100248 77.1172 -0.000497453 78.0221 0.372071 78.7243C0.856527 79.5687 1.60997 80.0426 2.39551 79.997H2.39871L10.4618 79.9846C11.7561 80.054 12.9266 78.9422 13.3276 77.2627L26.0139 3.54914C26.194 2.64327 26.0602 1.67484 25.6506 0.920513C25.3149 0.338444 24.8016 -0.000954095 24.2585 2.01467e-06ZM2.32257 76.3518C2.34902 76.3642 2.37386 76.3822 2.39617 76.4051L2.39751 78.1789L2.32257 76.3518ZM10.7646 76.2409C10.6705 76.3111 10.5651 76.348 10.4579 76.3484L2.89683 76.3607L20.4206 3.70277C20.4257 3.67978 20.4325 3.6575 20.4407 3.63623H23.2602L10.7646 76.2409Z" fill="#BD2226"/>
<path d="M50.2797 0H29.72C28.6185 0.138849 27.7461 1.32886 27.6446 2.83098L18.6994 76.5206C18.5927 77.3511 18.7607 78.2035 19.1585 78.8492C19.6329 79.5868 20.3224 80.0005 21.0418 79.9792L39.9999 79.9424L58.9596 79.9788C59.6783 79.9996 60.3671 79.5859 60.841 78.8488C61.2369 78.2081 61.4056 77.362 61.3021 76.5362L52.3531 2.81498C52.2484 1.31881 51.3774 0.136265 50.2797 0V0ZM39.9999 3.63623H41.4445L41.6033 12.7268H38.3964L38.5552 3.63623H39.9999ZM37.3398 76.2764L37.5019 65.4708L39.9927 65.4521L42.4978 65.4786L42.6606 76.3057L37.3398 76.2764ZM45.3281 76.3167L45.1581 65.0499C45.0866 63.1956 43.936 61.7635 42.5753 61.8353L39.9927 61.8158L37.4315 61.8353C36.0677 61.761 34.9133 63.1949 34.8405 65.0534L34.6722 76.3162L21.4247 76.3411L30.265 3.63623H35.8879L35.7206 13.2133C35.7007 14.0647 35.9319 14.8915 36.3626 15.5085C36.7451 16.0528 37.2737 16.3613 37.8266 16.363H42.1732C42.7261 16.3614 43.2547 16.0529 43.6373 15.5085C44.0674 14.8928 44.2987 14.0677 44.2793 13.2177L44.1118 3.63623H49.7497L58.5762 76.3426L45.3281 76.3167Z" fill="#BD2226"/>
<path d="M69.5402 79.9846L77.6013 79.997H77.6038C78.39 80.0426 79.1439 79.5683 79.6286 78.723C80.0011 78.021 80.1006 77.1161 79.8953 76.296L62.1138 2.56736C61.8312 1.14434 60.9235 0.116831 59.8457 2.7816e-06H55.7422C55.199 -0.00112096 54.6855 0.338294 54.3497 0.920513C53.9402 1.67523 53.8065 2.64398 53.9868 3.55005L66.6735 77.2618C67.0746 78.9419 68.2455 80.054 69.5402 79.9846ZM59.56 3.63623C59.5681 3.65772 59.575 3.67995 59.5808 3.70277L77.1038 76.3607L69.544 76.3493C69.4368 76.3491 69.3313 76.3121 69.2373 76.2418L56.741 3.63623H59.56Z" fill="#BD2226"/>
<path d="M37.6662 34.5442H42.3328C42.9733 34.5535 43.5896 34.2112 44.043 33.5942C44.4308 33.0588 44.6413 32.3305 44.6257 31.5783L44.4524 22.8472C44.4023 21.23 43.4129 19.9643 42.2261 19.9993H37.7729C36.585 19.9644 35.5951 21.2321 35.5462 22.8508L35.3729 31.5756C35.357 32.3285 35.5675 33.0576 35.9556 33.5937C36.409 34.211 37.0255 34.5535 37.6662 34.5442ZM38.1987 23.6355H41.8003L41.9448 30.908H38.0542L38.1987 23.6355Z" fill="#BD2226"/>
<path d="M42.3992 39.9983H37.5993C36.327 39.9731 35.2673 41.323 35.1993 43.0557L35.026 53.2311C35.0121 54.0186 35.2343 54.7797 35.6412 55.3387C36.1329 56.0041 36.7999 56.3725 37.4926 56.3614H42.5059C43.1984 56.3723 43.8652 56.0039 44.3568 55.3387C44.7628 54.7814 44.985 54.0227 44.972 53.2373L44.7986 43.0495C44.7287 41.3194 43.6698 39.9729 42.3992 39.9983ZM37.7026 52.7224L37.8574 43.6346H42.1411L42.2961 52.7251L37.7026 52.7224Z" fill="#BD2226"/>
</svg>
