<svg width="42" height="42" viewBox="0 0 42 42" fill="none" xmlns="http://www.w3.org/2000/svg">
<rect x="0.5" y="0.5" width="41" height="41" rx="7.5" stroke="url(#paint0_linear_1_17994)"/>
<path fill-rule="evenodd" clip-rule="evenodd" d="M11.606 14H30.3928C31.0018 14 31.5 14.4982 31.5 15.1072V15.2262C31.5 15.8352 31.0018 16.3333 30.3928 16.3333H11.606C10.997 16.3333 10.5 15.8352 10.5 15.2262V15.1072C10.5 14.4982 10.997 14 11.606 14ZM30.3928 19.8333H11.606C10.997 19.8333 10.5 20.3315 10.5 20.9405V21.0595C10.5 21.6685 10.997 22.1667 11.606 22.1667H30.3928C31.0018 22.1667 31.5 21.6685 31.5 21.0595V20.9405C31.5 20.3315 31.0018 19.8333 30.3928 19.8333ZM30.3928 25.6667H11.606C10.997 25.6667 10.5 26.1648 10.5 26.7738V26.8928C10.5 27.5018 10.997 28 11.606 28H30.3928C31.0018 28 31.5 27.5018 31.5 26.8928V26.7738C31.5 26.1648 31.0018 25.6667 30.3928 25.6667Z" fill="url(#paint1_linear_1_17994)"/>
<defs>
<linearGradient id="paint0_linear_1_17994" x1="-16.5" y1="-16.5" x2="40.5" y2="42" gradientUnits="userSpaceOnUse">
<stop stop-color="#F1B2A8"/>
<stop offset="0.5" stop-color="#EC57A8"/>
<stop offset="1" stop-color="#5B5AF7"/>
</linearGradient>
<linearGradient id="paint1_linear_1_17994" x1="21" y1="14" x2="21" y2="28" gradientUnits="userSpaceOnUse">
<stop stop-color="#F1B2A8"/>
<stop offset="0.48" stop-color="#EC57A8"/>
<stop offset="1" stop-color="#5B5AF7"/>
</linearGradient>
</defs>
</svg>
